<svg width="368" height="40" viewBox="0 0 368 40" fill="none" xmlns="http://www.w3.org/2000/svg">
<path d="M237.51 0.145752L242.163 0.145752C242.304 0.145752 242.422 0.215006 242.422 0.39968V5.01653C242.422 5.15504 242.316 5.27046 242.163 5.27046L237.51 5.27046C237.368 5.27046 237.251 5.16658 237.251 5.01653V0.39968C237.251 0.261175 237.357 0.145752 237.51 0.145752Z" fill="#2F3337"/>
<path d="M256.9 16.4776C255.772 16.3622 254.714 16.2583 253.903 16.0967C252.364 15.8081 251.882 15.231 251.882 14.3308C251.882 12.9572 253.163 12.0223 255.619 12.0223C258.146 12.0223 260.426 12.9226 262.106 14.3308C262.212 14.4346 262.365 14.4346 262.47 14.2961L265.22 11.122C265.326 11.0182 265.326 10.8681 265.185 10.7642C263.787 9.54076 261.001 7.80945 256.242 7.80945C250.883 7.80945 247.299 10.291 247.299 14.6886C247.299 17.8973 249.062 19.4093 251.4 20.1941C252.952 20.702 254.491 20.829 255.984 20.9559C256.912 21.0367 257.829 21.106 258.698 21.2791C260.426 21.5677 260.966 22.2486 260.966 23.3336C260.966 24.811 259.615 25.7113 256.935 25.7113C253.821 25.7113 251.436 24.7417 249.567 22.9758C249.461 22.8719 249.273 22.8373 249.167 22.9758L246.488 26.1499C246.476 26.173 246.476 26.1845 246.465 26.2076C246.429 26.2999 246.394 26.3807 246.488 26.4384C247.84 27.812 250.742 29.9011 256.501 29.9011C263.176 29.9011 265.808 26.727 265.808 22.9181C265.667 18.8899 262.87 17.4125 260.449 16.9393C259.309 16.7315 258.064 16.6045 256.9 16.4776Z" fill="#2F3337"/>
<path d="M242.067 8.27075L237.637 8.27075C237.495 8.27075 237.378 8.37461 237.378 8.52466L237.366 29.1274C237.366 29.2659 237.472 29.3813 237.625 29.3813H242.055C242.196 29.3813 242.314 29.2774 242.314 29.1274L242.325 8.52466C242.325 8.38616 242.255 8.27075 242.067 8.27075Z" fill="#2F3337"/>
<path fill-rule="evenodd" clip-rule="evenodd" d="M282.061 7.74048C279.017 7.74048 276.714 8.74464 275.127 10.4067V8.50226C275.127 8.36376 275.022 8.24833 274.869 8.24833L270.685 8.24833C270.544 8.24833 270.427 8.35222 270.427 8.50226V38.0732C270.427 38.2117 270.533 38.3271 270.685 38.3271H275.08C275.222 38.3271 275.339 38.2232 275.339 38.0732V27.3736C276.914 28.8856 279.111 29.7513 282.085 29.7513C288.501 29.7513 292.755 24.9267 292.755 18.694C292.732 12.6113 288.513 7.74048 282.061 7.74048ZM281.25 25.2845C277.067 25.2845 274.939 22.3644 274.939 18.7632C274.939 15.1967 277.067 12.3227 281.25 12.3227C285.175 12.3227 287.526 15.2429 287.526 18.7632C287.526 22.3644 285.175 25.2845 281.25 25.2845Z" fill="#2F3337"/>
<path d="M307.646 7.82178C308.669 7.82178 309.668 8.04108 310.396 8.29501C310.537 8.32964 310.537 8.43351 310.537 8.65281L309.327 13.085C309.292 13.2235 309.186 13.2697 309.033 13.2235C308.258 12.9696 307.458 12.8311 306.8 12.8311C303.686 12.8311 301.818 15.3472 301.818 18.2674V29.1401C301.818 29.2786 301.712 29.394 301.559 29.394H297.164C297.023 29.394 296.905 29.2901 296.905 29.1401V8.5374C296.905 8.3989 297.011 8.28347 297.164 8.28347L301.347 8.28347C301.488 8.28347 301.606 8.38735 301.606 8.5374V11.1344C303.169 8.57203 305.59 7.82178 307.646 7.82178Z" fill="#2F3337"/>
<path fill-rule="evenodd" clip-rule="evenodd" d="M367.706 8.29375H363.523C363.382 8.29375 363.264 8.39763 363.264 8.54767V10.429C361.654 8.76698 359.374 7.76282 356.331 7.76282C349.914 7.76282 345.66 12.8067 345.66 18.9702C345.66 25.1683 349.914 30.0276 356.331 30.0276C359.269 30.0276 361.502 29.1273 363.076 27.6499V29.6697C363.076 33.3748 360.185 34.8176 357.541 34.8176C355.05 34.8176 352.735 33.6287 351.489 31.251C351.454 31.1125 351.23 31.0317 351.125 31.1125L347.023 32.9477C346.918 32.9824 346.882 33.167 346.918 33.2363C348.057 35.8679 351.172 39.1459 357.553 39.1459C364.451 39.1459 368 34.933 368 29.6697V8.55923C367.953 8.40918 367.847 8.29375 367.706 8.29375ZM357.142 25.5146C353.217 25.5146 350.866 22.5944 350.866 18.9933C350.866 15.4268 353.217 12.3335 357.142 12.3335C361.325 12.3335 363.452 15.473 363.452 18.9933C363.452 22.606 361.325 25.5146 357.142 25.5146Z" fill="#2F3337"/>
<path d="M313.681 8.33008L318.077 8.33008C318.218 8.33008 318.335 8.43396 318.335 8.58401V29.1983C318.335 29.3368 318.229 29.4522 318.077 29.4522H313.681C313.54 29.4522 313.423 29.3483 313.423 29.1983V8.58401C313.423 8.43396 313.54 8.33008 313.681 8.33008Z" fill="#2F3337"/>
<path d="M334.371 7.89087C331.668 7.89087 329.506 8.73344 327.954 10.2108V8.56031C327.954 8.42181 327.849 8.31792 327.708 8.31792L323.606 8.31792C323.465 8.31792 323.359 8.42181 323.359 8.56031V29.1976C323.359 29.3361 323.465 29.44 323.606 29.44H327.931C328.072 29.44 328.189 29.3361 328.189 29.1976V17.6209C328.189 14.8392 329.705 12.323 332.831 12.323C335.464 12.323 337.226 14.1698 337.226 17.2746V29.1976C337.226 29.3361 337.332 29.44 337.473 29.44H341.798C341.939 29.44 342.045 29.3361 342.045 29.1976V16.1089C342.009 11.8152 340.07 7.89087 334.371 7.89087Z" fill="#2F3337"/>
<path d="M313.59 0.157959L318.232 0.157959C318.373 0.157959 318.49 0.227213 318.49 0.411887V5.02874C318.49 5.16724 318.384 5.28266 318.232 5.28266L313.59 5.28266C313.449 5.28266 313.331 5.17878 313.331 5.02874V0.411887C313.331 0.273382 313.449 0.157959 313.59 0.157959Z" fill="#2F3337"/>
<path d="M206.979 10.5116H207.014L210.868 10.5116H210.904C211.562 10.5116 212.044 10.0384 212.044 9.39202V1.27791C212.044 0.631554 211.562 0.158325 210.904 0.158325L210.868 0.158325L207.014 0.158325H206.979C206.321 0.158325 205.839 0.631554 205.839 1.27791V9.39202C205.803 10.0846 206.285 10.5116 206.979 10.5116Z" fill="#FF603D"/>
<path d="M201.795 14.8399L201.831 14.8053L204.216 11.8505L204.252 11.8159C204.651 11.308 204.581 10.6617 204.063 10.2346L197.6 5.1907C197.083 4.79826 196.425 4.86752 195.99 5.37537L195.955 5.41L193.569 8.36478L193.534 8.3994C193.134 8.90726 193.205 9.55363 193.722 9.98069L200.185 15.0246C200.738 15.417 201.396 15.3478 201.795 14.8399Z" fill="#FF603D"/>
<path d="M202.018 21.4761V21.4414L201.171 17.7595V17.7249C201.03 17.0785 200.478 16.7553 199.808 16.8938L191.77 18.6944C191.112 18.8329 190.783 19.3754 190.924 20.0333V20.0679L191.77 23.7499V23.7845C191.911 24.4308 192.463 24.754 193.133 24.6155L201.171 22.8149C201.841 22.6649 202.17 22.1224 202.018 21.4761Z" fill="#FF603D"/>
<path d="M207.457 25.4483L207.422 25.4137L203.967 23.7862L203.931 23.7516C203.308 23.463 202.686 23.6823 202.427 24.2941L198.866 31.5772C198.573 32.1889 198.796 32.8006 199.419 33.0546L199.454 33.0892L202.909 34.7166L202.944 34.7513C203.567 35.0398 204.19 34.8205 204.448 34.2088L208.009 26.9257C208.268 26.3486 208.044 25.7368 207.457 25.4483Z" fill="#FF603D"/>
<path d="M213.981 23.7861L213.946 23.8208L210.491 25.4482L210.456 25.4828C209.833 25.7714 209.645 26.3831 209.904 26.9949L213.5 34.278C213.793 34.8897 214.416 35.0744 215.039 34.8204L215.074 34.7858L218.529 33.1584L218.565 33.1237C219.187 32.8352 219.375 32.2235 219.117 31.6117L215.521 24.3286C215.204 23.7169 214.569 23.4976 213.981 23.7861Z" fill="#FF603D"/>
<path d="M216.711 17.69V17.7247L215.865 21.4066V21.4412C215.724 22.0876 216.053 22.6301 216.711 22.7801L224.75 24.5807C225.408 24.7192 225.96 24.396 226.113 23.7497V23.715L226.959 20.0331V19.9985C227.1 19.3521 226.771 18.8096 226.113 18.6596L218.075 16.859C217.44 16.709 216.888 17.0321 216.711 17.69Z" fill="#FF603D"/>
<path d="M213.582 11.8159L213.617 11.8505L216.003 14.8053L216.038 14.8399C216.437 15.3478 217.107 15.417 217.648 15.0246L224.111 9.98069C224.628 9.58826 224.699 8.93034 224.299 8.3994L224.264 8.36478L221.879 5.41L221.843 5.37537C221.444 4.86752 220.774 4.79826 220.233 5.1907L213.77 10.2346C213.253 10.6617 213.182 11.2734 213.582 11.8159Z" fill="#FF603D"/>
<path d="M0 8.21399H3.73706L3.73706 23.8305L15.9942 8.21399H19.2964L19.2964 29.5554H15.6064L15.6064 13.8465L3.34925 29.5554H0L0 8.21399Z" fill="#2F3337"/>
<path d="M25.6074 8.21399H29.3445V17.0091L41.2138 17.0091V8.21399H44.9509V29.5554H41.2138V20.3332L29.3445 20.3332V29.5554H25.6074L25.6074 8.21399Z" fill="#2F3337"/>
<path d="M61.1638 29.9811C54.6064 29.9811 49.7764 25.0757 49.7764 18.8891C49.7764 12.7025 54.5946 7.79712 61.1638 7.79712C65.6413 7.79712 69.2961 10.1055 71.1999 13.5105L67.9446 15.2995C66.7224 12.8641 64.2898 11.202 61.1638 11.202C56.6394 11.202 53.5604 14.6185 53.5604 18.8891C53.5604 23.1597 56.6512 26.5761 61.1638 26.5761C64.2898 26.5761 66.7224 24.9141 67.9446 22.4787L71.1999 24.2677C69.2843 27.6726 65.6413 29.9811 61.1638 29.9811Z" fill="#2F3337"/>
<path d="M80.287 11.5843L73.377 11.5843V8.21399L91.2397 8.21399V11.5843L84.0241 11.5843V29.5554L80.287 29.5554V11.5843Z" fill="#2F3337"/>
<path d="M94.9004 8.21399H98.6374V23.8305L110.895 8.21399H114.197V29.5554H110.507V13.8465L98.2496 29.5554H94.9004V8.21399Z" fill="#2F3337"/>
<path d="M124.767 11.5843L117.857 11.5843V8.21399L135.72 8.21399V11.5843L128.505 11.5843V29.5554L124.767 29.5554V11.5843Z" fill="#2F3337"/>
<path d="M149.353 33.3527C147.567 37.2424 145.487 38.9045 142.138 38.9045C141.092 38.9045 140.352 38.8583 139.705 38.6852V35.4418C140.352 35.5226 140.927 35.5688 141.832 35.5688C143.313 35.5688 144.57 34.8417 145.746 32.3255L147.532 28.5743L137.931 8.21399H142.056L149.577 24.3037L156.969 8.21399H161.14L149.353 33.3527Z" fill="#2F3337"/>
<path d="M170.203 11.5843L163.293 11.5843V8.21399L181.156 8.21399V11.5843L173.94 11.5843V29.5554L170.203 29.5554V11.5843Z" fill="#2F3337"/>
</svg>
